<?xml version="1.0" encoding="utf-8"?>
<!-- Generator: Adobe Illustrator 24.0.1, SVG Export Plug-In . SVG Version: 6.00 Build 0)  -->
<svg version="1.1" id="Layer_1" xmlns="http://www.w3.org/2000/svg" xmlns:xlink="http://www.w3.org/1999/xlink" x="0px" y="0px"
	 viewBox="0 0 191.86 56.91" style="enable-background:new 0 0 191.86 56.91;" xml:space="preserve">
<style type="text/css">
	.st0{fill:#FFFFFF;}
</style>
<g>
	<g id="XMLID_71_">
		<path class="st0" d="M50.11,46.28c-9.83,0-17.82-7.99-17.82-17.82s7.99-17.82,17.82-17.82c9.83,0,17.82,7.99,17.82,17.82
			S59.93,46.28,50.11,46.28z M50.11,12.68c-8.7,0-15.78,7.08-15.78,15.78s7.08,15.78,15.78,15.78c8.7,0,15.78-7.08,15.78-15.78
			S58.8,12.68,50.11,12.68z"/>
	</g>
	<g id="XMLID_36_">
		<g id="XMLID_56_">
			<path class="st0" d="M36.95,28.85c0-0.53,0.01-0.89,0-1.24c-0.02-0.57,0.09-1.11,0.22-1.66c0.15-0.63,0.31-1.26,0.52-1.87
				c0.32-0.9,0.74-1.76,1.25-2.57c0.51-0.82,1.11-1.57,1.78-2.25c0.61-0.62,1.27-1.2,2.01-1.67c0.55-0.34,1.11-0.66,1.67-0.98
				c0.18-0.1,0.21-0.08,0.29,0.1c0.45,0.95,1.04,1.82,1.59,2.71c0.95,1.53,1.82,3.11,2.53,4.76c0.53,1.23,0.98,2.49,1.3,3.8
				c0.35,1.45,0.55,2.91,0.49,4.41c-0.04,0.96-0.19,1.9-0.45,2.82c-0.22,0.78-0.4,1.57-0.64,2.34c-0.33,1.08-0.7,2.15-1.06,3.22
				c-0.09,0.27-0.2,0.54-0.3,0.8c-0.08,0.21-0.09,0.21-0.31,0.18c-0.81-0.14-1.6-0.36-2.36-0.66c-0.9-0.35-1.77-0.78-2.57-1.31
				c-1.3-0.86-2.42-1.91-3.36-3.16c-0.5-0.66-0.94-1.37-1.3-2.12c-0.34-0.7-0.63-1.43-0.85-2.18c-0.12-0.42-0.18-0.85-0.3-1.26
				C36.89,30.29,36.97,29.48,36.95,28.85z"/>
		</g>
		<g id="XMLID_37_">
			<path class="st0" d="M48.7,41.94c0.05-0.25,0.1-0.48,0.15-0.7c0.29-1.11,0.69-2.18,1.27-3.17c0.77-1.29,1.77-2.36,3.16-2.99
				c0.75-0.34,1.53-0.65,2.31-0.92c1.38-0.48,2.78-0.91,4.17-1.38c1.14-0.38,2.28-0.78,3.35-1.34c0.04-0.02,0.09-0.03,0.14-0.05
				c0,0.04,0.02,0.06,0.01,0.08c-0.23,0.93-0.51,1.85-0.92,2.72c-0.32,0.68-0.69,1.34-1.11,1.96c-0.79,1.15-1.74,2.16-2.85,3.02
				c-0.6,0.47-1.24,0.89-1.91,1.24c-1.24,0.65-2.48,1.23-3.88,1.43c-1.23,0.18-2.49,0.11-3.73,0.1
				C48.82,41.96,48.77,41.95,48.7,41.94z"/>
		</g>
	</g>
</g>
<g>
	<g id="XMLID_179_">
		<path class="st0" d="M73.32,17.52c1.86,0,3.73-0.02,5.59,0.02c0.72,0.02,1.45,0.1,2.14,0.29c1.6,0.45,2.58,1.76,2.67,3.42
			c0.05,0.81,0.03,1.61-0.2,2.39c-0.45,1.55-1.7,2.61-3.38,2.75c-1.21,0.1-2.43,0.08-3.65,0.12c-0.1,0-0.2,0.01-0.32,0.02
			c0,1.64,0,3.27,0,4.94c-0.53,0-1.03,0.01-1.53,0c-0.44-0.01-0.88-0.03-1.32-0.04C73.32,26.79,73.32,22.16,73.32,17.52z
			 M76.16,24.14c1.08-0.04,2.13-0.04,3.16-0.14c0.85-0.09,1.37-0.63,1.52-1.48c0.05-0.27,0.05-0.56,0.03-0.84
			c-0.06-0.88-0.5-1.44-1.36-1.6c-0.6-0.12-1.22-0.1-1.83-0.13c-0.5-0.02-1,0-1.51,0c-0.01,0.08-0.01,0.13-0.01,0.18
			C76.16,21.43,76.16,22.74,76.16,24.14z"/>
	</g>
	<g id="XMLID_173_">
		<path class="st0" d="M145.07,21.87c-0.9,0-1.77,0-2.65-0.01c-0.06,0-0.16-0.08-0.18-0.15c-0.39-1.24-1.53-2.11-2.83-2.14
			c-1.71-0.04-3.01,0.79-3.6,2.4c-0.63,1.72-0.64,3.49,0.02,5.2c0.81,2.1,3.62,2.9,5.37,1.59c0.65-0.48,1.21-1.45,1.38-2.4
			c-1.05,0-2.09,0-3.15,0c0-0.82,0-1.6,0-2.41c1.88,0,3.75,0,5.64,0c0,2.49,0,4.97,0,7.48c-0.62,0-1.22,0-1.87,0
			c-0.09-0.56-0.18-1.12-0.28-1.75c-0.09,0.11-0.16,0.19-0.22,0.27c-1.08,1.44-2.55,2-4.31,1.88c-1.25-0.08-2.41-0.42-3.41-1.21
			c-1.21-0.94-1.94-2.19-2.27-3.67c-0.44-2-0.42-3.99,0.37-5.9c0.95-2.29,2.68-3.58,5.16-3.84c1.36-0.15,2.68-0.02,3.92,0.57
			c1.61,0.77,2.57,2.05,2.89,3.81c0.01,0.04,0.01,0.08,0.01,0.12C145.08,21.74,145.07,21.78,145.07,21.87z"/>
	</g>
	<g id="XMLID_170_">
		<path class="st0" d="M84.53,17.54c0.11-0.01,0.21-0.01,0.31-0.01c2.18,0,4.35-0.01,6.53,0c0.77,0,1.52,0.12,2.22,0.47
			c1.51,0.76,2.15,2.1,2.07,3.68c-0.05,0.94-0.31,1.81-1.06,2.45c-0.29,0.24-0.63,0.43-0.95,0.64c0.02,0.01,0.06,0.05,0.11,0.08
			c0.97,0.48,1.38,1.31,1.44,2.34c0.05,1.01,0.08,2.01,0.12,3.02c0.01,0.33,0.14,0.59,0.42,0.8c0.1,0.07,0.12,0.24,0.2,0.41
			c-0.16,0.01-0.25,0.03-0.33,0.03c-0.87,0-1.73-0.01-2.6,0.01c-0.24,0-0.33-0.09-0.35-0.3c-0.07-0.98-0.15-1.96-0.21-2.95
			c-0.02-0.29,0-0.59-0.03-0.88c-0.09-0.73-0.51-1.15-1.27-1.28c-0.3-0.05-0.6-0.07-0.9-0.08c-0.88-0.01-1.75,0-2.63,0
			c-0.08,0-0.16,0.01-0.26,0.02c0,1.82,0,3.63,0,5.46c-0.95,0-1.87,0-2.82,0C84.53,26.82,84.53,22.2,84.53,17.54z M87.35,23.58
			c1.31,0,2.58,0.05,3.85-0.01c1-0.05,1.53-0.6,1.61-1.58c0.08-1.01-0.29-1.72-1.28-1.95c-0.23-0.06-0.48-0.08-0.72-0.08
			c-1.06-0.01-2.11,0-3.17,0c-0.1,0-0.19,0-0.29,0C87.35,21.18,87.35,22.38,87.35,23.58z"/>
	</g>
	<g id="XMLID_169_">
		<path class="st0" d="M117.96,17.55c4.62,0,9.23,0,13.86,0c0,4.63,0,9.26,0,13.9c-0.92,0-1.84,0-2.8,0c0-3.81,0-7.61,0-11.43
			c-1.39,0-2.74,0-4.13,0c0,3.8,0,7.6,0,11.43c-0.96,0-1.88,0-2.84,0c0-3.8,0-7.6,0-11.43c-1.38,0-2.73,0-4.09,0
			C117.96,19.18,117.96,18.37,117.96,17.55z"/>
	</g>
	<g id="XMLID_168_">
		<path class="st0" d="M156.3,20.01c-2.37,0-4.72,0-7.09,0c0,0.98,0,1.95,0,2.95c2.19,0,4.38,0,6.59,0c0,0.81,0,1.59,0,2.41
			c-2.2,0-4.39,0-6.6,0c0,1.22,0,2.4,0,3.62c2.47,0,4.93,0,7.41,0c0,0.83,0,1.63,0,2.46c-3.41,0-6.82,0-10.25,0
			c0-4.63,0-9.26,0-13.9c3.31,0,6.61,0,9.93,0C156.3,18.37,156.3,19.18,156.3,20.01z"/>
	</g>
	<g id="XMLID_167_">
		<path class="st0" d="M106.72,17.55c0,0.82,0,1.62,0,2.45c-2.38,0-4.74,0-7.12,0c0,0.99,0,1.95,0,2.95c2.19,0,4.38,0,6.59,0
			c0,0.81,0,1.59,0,2.41c-2.19,0-4.38,0-6.59,0c0,1.23,0,2.42,0,3.64c2.49,0,4.95,0,7.43,0c0,0.83,0,1.63,0,2.47
			c-0.11,0-0.22,0-0.33,0c-3.2,0-6.41,0-9.61,0.01c-0.28,0-0.35-0.07-0.35-0.35c0.01-4.41,0.01-8.82,0.01-13.24
			c0-0.11,0-0.22,0-0.34C100.08,17.55,103.38,17.55,106.72,17.55z"/>
	</g>
	<g id="XMLID_166_">
		<path class="st0" d="M118.03,21.7c-0.92,0-1.81,0-2.73,0c-0.02-0.09-0.05-0.19-0.07-0.28c-0.12-0.63-0.47-1.11-1.03-1.42
			c-0.95-0.52-1.96-0.58-2.97-0.23c-0.71,0.24-1.08,0.82-1.1,1.54c-0.02,0.51,0.19,0.88,0.64,1.06c0.66,0.25,1.34,0.48,2.03,0.66
			c1.2,0.31,2.42,0.59,3.57,1.09c1.32,0.58,1.94,1.61,1.99,3c0.08,2.38-0.98,3.83-3.3,4.45c-1.69,0.45-3.39,0.45-5.04-0.2
			c-1.62-0.64-2.5-1.89-2.73-3.61c-0.02-0.19-0.04-0.38-0.07-0.59c0.92,0,1.81,0,2.72,0c0.03,0.18,0.06,0.37,0.1,0.55
			c0.21,0.85,0.77,1.36,1.58,1.58c0.97,0.26,1.96,0.22,2.91-0.12c0.56-0.2,1.01-0.54,1.12-1.19c0.12-0.67-0.14-1.26-0.77-1.51
			c-0.7-0.27-1.43-0.45-2.15-0.67c-1.08-0.34-2.18-0.63-3.24-1.02c-1.38-0.51-2.01-1.57-2.05-3.03c-0.05-2.05,0.98-3.57,2.92-4.23
			c1.4-0.47,2.83-0.51,4.25-0.11C116.61,17.97,117.85,19.54,118.03,21.7z"/>
	</g>
	<g id="XMLID_35_">
		<path class="st0" d="M73.34,33.57h0.69v5.01h-0.69V33.57z"/>
		<path class="st0" d="M77.57,33.57h0.8l2.53,4.06v-4.06h0.65v5.01h-0.76l-2.57-4.06v4.06h-0.65V33.57z"/>
		<path class="st0" d="M88.71,33.57v0.6h-1.69v4.41h-0.69v-4.41h-1.69v-0.6H88.71z"/>
		<path class="st0" d="M91.84,33.57h3.65v0.61H92.5v1.52h2.77v0.58H92.5v1.7h3.04v0.6h-3.71V33.57z"/>
		<path class="st0" d="M98.96,33.57h2.32c0.38,0,0.7,0.06,0.94,0.17c0.47,0.21,0.71,0.61,0.71,1.18c0,0.3-0.06,0.55-0.19,0.74
			s-0.3,0.34-0.52,0.46c0.2,0.08,0.34,0.18,0.44,0.31c0.1,0.13,0.15,0.34,0.17,0.63l0.02,0.67c0.01,0.19,0.02,0.33,0.05,0.43
			c0.04,0.16,0.11,0.26,0.22,0.31v0.11h-0.83c-0.02-0.04-0.04-0.1-0.05-0.17c-0.01-0.07-0.02-0.2-0.03-0.4l-0.04-0.84
			c-0.02-0.33-0.14-0.55-0.37-0.66c-0.13-0.06-0.33-0.09-0.61-0.09h-1.55v2.15h-0.68V33.57z M101.21,35.86
			c0.32,0,0.57-0.06,0.76-0.19s0.28-0.36,0.28-0.69c0-0.36-0.13-0.6-0.39-0.73c-0.14-0.07-0.32-0.1-0.56-0.1h-1.66v1.71H101.21z"/>
		<path class="st0" d="M106.37,33.57h0.8l2.53,4.06v-4.06h0.65v5.01h-0.76l-2.57-4.06v4.06h-0.65V33.57z"/>
		<path class="st0" d="M115.32,33.57h0.77l1.82,5.01h-0.74l-0.51-1.5h-1.98l-0.54,1.5h-0.7L115.32,33.57z M116.43,36.52l-0.76-2.21
			l-0.81,2.21H116.43z"/>
		<path class="st0" d="M124.1,33.57v0.6h-1.69v4.41h-0.69v-4.41h-1.69v-0.6H124.1z"/>
		<path class="st0" d="M127.32,33.57h0.69v5.01h-0.69V33.57z"/>
		<path class="st0" d="M135.68,34.28c0.33,0.44,0.5,1.01,0.5,1.7c0,0.75-0.19,1.37-0.57,1.87c-0.45,0.58-1.08,0.87-1.91,0.87
			c-0.77,0-1.38-0.25-1.82-0.76c-0.39-0.49-0.59-1.11-0.59-1.86c0-0.68,0.17-1.26,0.5-1.74c0.43-0.62,1.07-0.93,1.92-0.93
			C134.6,33.43,135.26,33.71,135.68,34.28z M135.08,37.48c0.27-0.43,0.4-0.92,0.4-1.48c0-0.59-0.15-1.06-0.46-1.42
			c-0.31-0.36-0.73-0.54-1.26-0.54c-0.52,0-0.94,0.18-1.27,0.53c-0.33,0.36-0.49,0.88-0.49,1.57c0,0.56,0.14,1.02,0.42,1.4
			c0.28,0.38,0.74,0.57,1.37,0.57C134.38,38.12,134.82,37.9,135.08,37.48z"/>
		<path class="st0" d="M139.43,33.57h0.8l2.53,4.06v-4.06h0.65v5.01h-0.76l-2.57-4.06v4.06h-0.65V33.57z"/>
		<path class="st0" d="M148.38,33.57h0.77l1.82,5.01h-0.74l-0.51-1.5h-1.98l-0.54,1.5h-0.7L148.38,33.57z M149.5,36.52l-0.76-2.21
			l-0.81,2.21H149.5z"/>
		<path class="st0" d="M154.03,33.57h0.68v4.41h2.54v0.6h-3.22V33.57z"/>
	</g>
</g>
</svg>
